<mxfile host="app.diagrams.net" modified="2021-01-22T12:22:01.390Z" agent="5.0 (Windows NT 10.0; Win64; x64) AppleWebKit/537.36 (KHTML, like Gecko) Chrome/87.0.4280.141 Safari/537.36 Edg/87.0.664.75" etag="CN4YD0XeIPXl7P9wWRCT" version="14.2.4" type="github">
  <diagram id="AQjkesUoZsN7H_KsK310" name="er">
    <mxGraphModel dx="1422" dy="794" grid="1" gridSize="10" guides="1" tooltips="1" connect="1" arrows="1" fold="1" page="1" pageScale="1" pageWidth="1654" pageHeight="1169" math="0" shadow="0">
      <root>
        <mxCell id="0" />
        <mxCell id="1" parent="0" />
        <mxCell id="fxaJQLIq1E5l9hxzxbRq-1" value="&lt;font style=&quot;font-size: 14px&quot;&gt;&lt;b&gt;Distributer&lt;/b&gt;&lt;/font&gt;" style="rounded=0;whiteSpace=wrap;html=1;" parent="1" vertex="1">
          <mxGeometry x="760" y="1000" width="120" height="80" as="geometry" />
        </mxCell>
        <mxCell id="fxaJQLIq1E5l9hxzxbRq-2" value="&lt;font style=&quot;font-size: 14px&quot;&gt;&lt;b&gt;Prodavnica&lt;/b&gt;&lt;/font&gt;" style="rounded=0;whiteSpace=wrap;html=1;" parent="1" vertex="1">
          <mxGeometry x="1240" y="1000" width="120" height="80" as="geometry" />
        </mxCell>
        <mxCell id="fxaJQLIq1E5l9hxzxbRq-6" value="" style="group" parent="1" vertex="1" connectable="0">
          <mxGeometry x="760" y="840" width="120" height="80" as="geometry" />
        </mxCell>
        <mxCell id="fxaJQLIq1E5l9hxzxbRq-4" value="" style="rounded=0;whiteSpace=wrap;html=1;" parent="fxaJQLIq1E5l9hxzxbRq-6" vertex="1">
          <mxGeometry width="120" height="80" as="geometry" />
        </mxCell>
        <mxCell id="fxaJQLIq1E5l9hxzxbRq-3" value="&lt;font style=&quot;font-size: 14px&quot;&gt;&lt;b&gt;isporučuje&lt;/b&gt;&lt;/font&gt;" style="rhombus;whiteSpace=wrap;html=1;" parent="fxaJQLIq1E5l9hxzxbRq-6" vertex="1">
          <mxGeometry width="120" height="80" as="geometry" />
        </mxCell>
        <mxCell id="fxaJQLIq1E5l9hxzxbRq-8" value="&lt;font style=&quot;font-size: 14px&quot;&gt;&lt;b&gt;Sirovina&lt;/b&gt;&lt;/font&gt;" style="rounded=0;whiteSpace=wrap;html=1;" parent="1" vertex="1">
          <mxGeometry x="520" y="840" width="120" height="80" as="geometry" />
        </mxCell>
        <mxCell id="fxaJQLIq1E5l9hxzxbRq-11" value="" style="group" parent="1" vertex="1" connectable="0">
          <mxGeometry x="1000" y="680" width="120" height="80" as="geometry" />
        </mxCell>
        <mxCell id="fxaJQLIq1E5l9hxzxbRq-9" value="" style="rounded=0;whiteSpace=wrap;html=1;" parent="fxaJQLIq1E5l9hxzxbRq-11" vertex="1">
          <mxGeometry width="120" height="80" as="geometry" />
        </mxCell>
        <mxCell id="fxaJQLIq1E5l9hxzxbRq-10" value="&lt;font style=&quot;font-size: 14px&quot;&gt;&lt;b&gt;obuhvataProiz&lt;/b&gt;&lt;/font&gt;" style="rhombus;whiteSpace=wrap;html=1;" parent="fxaJQLIq1E5l9hxzxbRq-11" vertex="1">
          <mxGeometry width="120" height="80" as="geometry" />
        </mxCell>
        <mxCell id="fxaJQLIq1E5l9hxzxbRq-12" value="&lt;font style=&quot;font-size: 14px&quot;&gt;&lt;b&gt;Proizvod&lt;/b&gt;&lt;/font&gt;" style="rounded=0;whiteSpace=wrap;html=1;" parent="1" vertex="1">
          <mxGeometry x="760" y="680" width="120" height="80" as="geometry" />
        </mxCell>
        <mxCell id="fxaJQLIq1E5l9hxzxbRq-17" value="&lt;b&gt;&lt;font style=&quot;font-size: 14px&quot;&gt;(1, *)&lt;/font&gt;&lt;/b&gt;" style="edgeStyle=orthogonalEdgeStyle;rounded=0;orthogonalLoop=1;jettySize=auto;html=1;exitX=1;exitY=0.5;exitDx=0;exitDy=0;entryX=0;entryY=0.5;entryDx=0;entryDy=0;" parent="1" source="fxaJQLIq1E5l9hxzxbRq-10" target="MjUJNUJYvw90bvCCFvBL-10" edge="1">
          <mxGeometry x="0.3333" y="30" relative="1" as="geometry">
            <mxPoint as="offset" />
          </mxGeometry>
        </mxCell>
        <mxCell id="fxaJQLIq1E5l9hxzxbRq-18" value="&lt;b&gt;&lt;font style=&quot;font-size: 14px&quot;&gt;(0, *)&lt;/font&gt;&lt;/b&gt;" style="edgeStyle=orthogonalEdgeStyle;rounded=0;orthogonalLoop=1;jettySize=auto;html=1;exitX=0;exitY=0.5;exitDx=0;exitDy=0;entryX=1;entryY=0.5;entryDx=0;entryDy=0;" parent="1" source="fxaJQLIq1E5l9hxzxbRq-10" target="fxaJQLIq1E5l9hxzxbRq-12" edge="1">
          <mxGeometry x="0.3333" y="30" relative="1" as="geometry">
            <mxPoint as="offset" />
          </mxGeometry>
        </mxCell>
        <mxCell id="fxaJQLIq1E5l9hxzxbRq-26" value="&lt;b&gt;&lt;font style=&quot;font-size: 14px&quot;&gt;(1,1)&lt;/font&gt;&lt;/b&gt;" style="edgeStyle=orthogonalEdgeStyle;rounded=0;orthogonalLoop=1;jettySize=auto;html=1;exitX=0.5;exitY=0;exitDx=0;exitDy=0;entryX=0.5;entryY=1;entryDx=0;entryDy=0;" parent="1" source="fxaJQLIq1E5l9hxzxbRq-24" target="MjUJNUJYvw90bvCCFvBL-10" edge="1">
          <mxGeometry x="0.25" y="30" relative="1" as="geometry">
            <mxPoint y="1" as="offset" />
          </mxGeometry>
        </mxCell>
        <mxCell id="fxaJQLIq1E5l9hxzxbRq-27" value="&lt;b&gt;&lt;font style=&quot;font-size: 14px&quot;&gt;(0, *)&lt;/font&gt;&lt;/b&gt;" style="edgeStyle=orthogonalEdgeStyle;rounded=0;orthogonalLoop=1;jettySize=auto;html=1;exitX=0.5;exitY=1;exitDx=0;exitDy=0;entryX=0.5;entryY=0;entryDx=0;entryDy=0;" parent="1" source="fxaJQLIq1E5l9hxzxbRq-24" target="fxaJQLIq1E5l9hxzxbRq-2" edge="1">
          <mxGeometry x="0.25" y="30" relative="1" as="geometry">
            <mxPoint y="-1" as="offset" />
          </mxGeometry>
        </mxCell>
        <mxCell id="fxaJQLIq1E5l9hxzxbRq-24" value="&lt;font style=&quot;font-size: 14px&quot;&gt;potpisanP&lt;/font&gt;" style="rhombus;whiteSpace=wrap;html=1;" parent="1" vertex="1">
          <mxGeometry x="1240" y="840" width="120" height="80" as="geometry" />
        </mxCell>
        <mxCell id="fxaJQLIq1E5l9hxzxbRq-35" value="&lt;b&gt;&lt;font style=&quot;font-size: 14px&quot;&gt;(1, *)&lt;/font&gt;&lt;/b&gt;" style="edgeStyle=orthogonalEdgeStyle;rounded=0;orthogonalLoop=1;jettySize=auto;html=1;entryX=0;entryY=0.5;entryDx=0;entryDy=0;" parent="1" source="fxaJQLIq1E5l9hxzxbRq-33" target="fxaJQLIq1E5l9hxzxbRq-12" edge="1">
          <mxGeometry x="0.3333" y="20" relative="1" as="geometry">
            <mxPoint as="offset" />
          </mxGeometry>
        </mxCell>
        <mxCell id="MjUJNUJYvw90bvCCFvBL-27" value="&lt;b&gt;&lt;font style=&quot;font-size: 14px&quot;&gt;(0, *)&lt;/font&gt;&lt;/b&gt;" style="edgeStyle=orthogonalEdgeStyle;rounded=0;orthogonalLoop=1;jettySize=auto;html=1;entryX=0.5;entryY=0;entryDx=0;entryDy=0;" parent="1" source="fxaJQLIq1E5l9hxzxbRq-33" target="fxaJQLIq1E5l9hxzxbRq-8" edge="1">
          <mxGeometry x="0.3333" y="20" relative="1" as="geometry">
            <mxPoint as="offset" />
          </mxGeometry>
        </mxCell>
        <mxCell id="fxaJQLIq1E5l9hxzxbRq-33" value="&lt;font style=&quot;font-size: 14px&quot;&gt;sastav&lt;/font&gt;" style="rhombus;whiteSpace=wrap;html=1;" parent="1" vertex="1">
          <mxGeometry x="520" y="680" width="120" height="80" as="geometry" />
        </mxCell>
        <mxCell id="fxaJQLIq1E5l9hxzxbRq-38" value="&lt;b&gt;&lt;font style=&quot;font-size: 14px&quot;&gt;(0, 1)&lt;/font&gt;&lt;/b&gt;" style="edgeStyle=orthogonalEdgeStyle;rounded=0;orthogonalLoop=1;jettySize=auto;html=1;entryX=0;entryY=0.5;entryDx=0;entryDy=0;exitX=1;exitY=0.5;exitDx=0;exitDy=0;" parent="1" source="fxaJQLIq1E5l9hxzxbRq-39" target="fxaJQLIq1E5l9hxzxbRq-37" edge="1">
          <mxGeometry x="0.4286" y="20" relative="1" as="geometry">
            <mxPoint as="offset" />
          </mxGeometry>
        </mxCell>
        <mxCell id="fxaJQLIq1E5l9hxzxbRq-37" value="&lt;font style=&quot;font-size: 14px&quot;&gt;&lt;b&gt;Zaposleni&lt;/b&gt;&lt;/font&gt;" style="rounded=0;whiteSpace=wrap;html=1;" parent="1" vertex="1">
          <mxGeometry x="760" y="360" width="120" height="80" as="geometry" />
        </mxCell>
        <mxCell id="fxaJQLIq1E5l9hxzxbRq-40" value="" style="group" parent="1" vertex="1" connectable="0">
          <mxGeometry x="540" y="360" width="80" height="80" as="geometry" />
        </mxCell>
        <mxCell id="fxaJQLIq1E5l9hxzxbRq-39" value="" style="rhombus;whiteSpace=wrap;html=1;" parent="fxaJQLIq1E5l9hxzxbRq-40" vertex="1">
          <mxGeometry width="80" height="80" as="geometry" />
        </mxCell>
        <mxCell id="fxaJQLIq1E5l9hxzxbRq-36" value="&lt;p style=&quot;line-height: 120%&quot;&gt;&lt;b&gt;&lt;font style=&quot;font-size: 14px&quot;&gt;IS-A&lt;/font&gt;&lt;/b&gt;&lt;/p&gt;" style="rhombus;whiteSpace=wrap;html=1;" parent="fxaJQLIq1E5l9hxzxbRq-40" vertex="1">
          <mxGeometry x="4.444444444444444" y="3.428571428571429" width="71.1111111111111" height="73.14285714285714" as="geometry" />
        </mxCell>
        <mxCell id="fxaJQLIq1E5l9hxzxbRq-44" value="" style="group" parent="1" vertex="1" connectable="0">
          <mxGeometry x="520" y="520" width="120" height="80" as="geometry" />
        </mxCell>
        <mxCell id="fxaJQLIq1E5l9hxzxbRq-43" value="" style="rounded=0;whiteSpace=wrap;html=1;" parent="fxaJQLIq1E5l9hxzxbRq-44" vertex="1">
          <mxGeometry width="120" height="80" as="geometry" />
        </mxCell>
        <mxCell id="fxaJQLIq1E5l9hxzxbRq-42" value="&lt;font style=&quot;font-size: 14px&quot;&gt;&lt;b&gt;Pekar&lt;/b&gt;&lt;/font&gt;" style="rounded=0;whiteSpace=wrap;html=1;" parent="fxaJQLIq1E5l9hxzxbRq-44" vertex="1">
          <mxGeometry x="4.615384615384616" y="4.444444444444445" width="110.76923076923077" height="71.11111111111111" as="geometry" />
        </mxCell>
        <mxCell id="fxaJQLIq1E5l9hxzxbRq-45" value="" style="group" parent="1" vertex="1" connectable="0">
          <mxGeometry x="520" y="200" width="120" height="80" as="geometry" />
        </mxCell>
        <mxCell id="fxaJQLIq1E5l9hxzxbRq-46" value="" style="rounded=0;whiteSpace=wrap;html=1;" parent="fxaJQLIq1E5l9hxzxbRq-45" vertex="1">
          <mxGeometry width="120" height="80" as="geometry" />
        </mxCell>
        <mxCell id="fxaJQLIq1E5l9hxzxbRq-47" value="&lt;font style=&quot;font-size: 14px&quot;&gt;&lt;b&gt;Menadžer&lt;/b&gt;&lt;/font&gt;" style="rounded=0;whiteSpace=wrap;html=1;" parent="fxaJQLIq1E5l9hxzxbRq-45" vertex="1">
          <mxGeometry x="4.615384615384616" y="4.444444444444445" width="110.76923076923077" height="71.11111111111111" as="geometry" />
        </mxCell>
        <mxCell id="fxaJQLIq1E5l9hxzxbRq-49" style="edgeStyle=orthogonalEdgeStyle;rounded=0;orthogonalLoop=1;jettySize=auto;html=1;endArrow=block;strokeWidth=1;shape=flexArrow;width=3;endSize=3;startSize=3;endWidth=20;entryX=0.5;entryY=0;entryDx=0;entryDy=0;" parent="1" source="fxaJQLIq1E5l9hxzxbRq-36" target="fxaJQLIq1E5l9hxzxbRq-43" edge="1">
          <mxGeometry relative="1" as="geometry">
            <mxPoint x="280" y="440" as="targetPoint" />
          </mxGeometry>
        </mxCell>
        <mxCell id="fxaJQLIq1E5l9hxzxbRq-50" style="edgeStyle=orthogonalEdgeStyle;shape=flexArrow;rounded=0;orthogonalLoop=1;jettySize=auto;html=1;exitX=0.5;exitY=0;exitDx=0;exitDy=0;entryX=0.5;entryY=1;entryDx=0;entryDy=0;startSize=3;endArrow=block;endSize=3;strokeWidth=1;fillColor=none;width=3;" parent="1" source="fxaJQLIq1E5l9hxzxbRq-39" target="fxaJQLIq1E5l9hxzxbRq-46" edge="1">
          <mxGeometry relative="1" as="geometry" />
        </mxCell>
        <mxCell id="MjUJNUJYvw90bvCCFvBL-1" value="&lt;font style=&quot;font-size: 14px&quot;&gt;&lt;b&gt;(0,1)&lt;/b&gt;&lt;/font&gt;" style="edgeStyle=orthogonalEdgeStyle;rounded=0;orthogonalLoop=1;jettySize=auto;html=1;entryX=0.5;entryY=0;entryDx=0;entryDy=0;" parent="1" source="MjUJNUJYvw90bvCCFvBL-5" target="MjUJNUJYvw90bvCCFvBL-2" edge="1">
          <mxGeometry x="0.282" y="20" relative="1" as="geometry">
            <mxPoint y="1" as="offset" />
          </mxGeometry>
        </mxCell>
        <mxCell id="MjUJNUJYvw90bvCCFvBL-2" value="&lt;font style=&quot;font-size: 14px&quot;&gt;&lt;b&gt;Ugovor&lt;/b&gt;&lt;/font&gt;" style="rounded=0;whiteSpace=wrap;html=1;" parent="1" vertex="1">
          <mxGeometry x="1000" y="200" width="120" height="80" as="geometry" />
        </mxCell>
        <mxCell id="MjUJNUJYvw90bvCCFvBL-3" value="" style="group" parent="1" vertex="1" connectable="0">
          <mxGeometry x="1020" y="40" width="80" height="80" as="geometry" />
        </mxCell>
        <mxCell id="MjUJNUJYvw90bvCCFvBL-4" value="" style="rhombus;whiteSpace=wrap;html=1;" parent="MjUJNUJYvw90bvCCFvBL-3" vertex="1">
          <mxGeometry width="80" height="80" as="geometry" />
        </mxCell>
        <mxCell id="MjUJNUJYvw90bvCCFvBL-5" value="&lt;p style=&quot;line-height: 120%&quot;&gt;&lt;b&gt;&lt;font style=&quot;font-size: 14px&quot;&gt;IS-A&lt;/font&gt;&lt;/b&gt;&lt;/p&gt;" style="rhombus;whiteSpace=wrap;html=1;" parent="MjUJNUJYvw90bvCCFvBL-3" vertex="1">
          <mxGeometry x="4.444444444444444" y="3.428571428571429" width="71.1111111111111" height="73.14285714285714" as="geometry" />
        </mxCell>
        <mxCell id="MjUJNUJYvw90bvCCFvBL-6" value="" style="group" parent="1" vertex="1" connectable="0">
          <mxGeometry x="280" y="680" width="120" height="80" as="geometry" />
        </mxCell>
        <mxCell id="MjUJNUJYvw90bvCCFvBL-7" value="" style="rounded=0;whiteSpace=wrap;html=1;" parent="MjUJNUJYvw90bvCCFvBL-6" vertex="1">
          <mxGeometry width="120" height="80" as="geometry" />
        </mxCell>
        <mxCell id="MjUJNUJYvw90bvCCFvBL-8" value="&lt;font style=&quot;font-size: 14px&quot;&gt;&lt;b&gt;NabUgovor&lt;/b&gt;&lt;/font&gt;" style="rounded=0;whiteSpace=wrap;html=1;" parent="MjUJNUJYvw90bvCCFvBL-6" vertex="1">
          <mxGeometry x="4.615384615384616" y="4.444444444444445" width="110.76923076923077" height="71.11111111111111" as="geometry" />
        </mxCell>
        <mxCell id="MjUJNUJYvw90bvCCFvBL-9" value="" style="group" parent="1" vertex="1" connectable="0">
          <mxGeometry x="1240" y="680" width="120" height="80" as="geometry" />
        </mxCell>
        <mxCell id="MjUJNUJYvw90bvCCFvBL-10" value="" style="rounded=0;whiteSpace=wrap;html=1;" parent="MjUJNUJYvw90bvCCFvBL-9" vertex="1">
          <mxGeometry width="120" height="80" as="geometry" />
        </mxCell>
        <mxCell id="MjUJNUJYvw90bvCCFvBL-11" value="&lt;font style=&quot;font-size: 14px&quot;&gt;&lt;b&gt;ProdUgovor&lt;/b&gt;&lt;/font&gt;" style="rounded=0;whiteSpace=wrap;html=1;" parent="MjUJNUJYvw90bvCCFvBL-9" vertex="1">
          <mxGeometry x="4.615384615384616" y="4.444444444444445" width="110.76923076923077" height="71.11111111111111" as="geometry" />
        </mxCell>
        <mxCell id="MjUJNUJYvw90bvCCFvBL-12" style="edgeStyle=orthogonalEdgeStyle;rounded=0;orthogonalLoop=1;jettySize=auto;html=1;endArrow=block;strokeWidth=1;shape=flexArrow;width=3;endSize=3;startSize=3;endWidth=20;entryX=0.5;entryY=0;entryDx=0;entryDy=0;" parent="1" source="MjUJNUJYvw90bvCCFvBL-5" target="MjUJNUJYvw90bvCCFvBL-7" edge="1">
          <mxGeometry relative="1" as="geometry">
            <mxPoint x="340" y="630" as="targetPoint" />
            <Array as="points">
              <mxPoint x="340" y="80" />
            </Array>
          </mxGeometry>
        </mxCell>
        <mxCell id="MjUJNUJYvw90bvCCFvBL-13" style="edgeStyle=orthogonalEdgeStyle;shape=flexArrow;rounded=0;orthogonalLoop=1;jettySize=auto;html=1;exitX=1;exitY=0.5;exitDx=0;exitDy=0;entryX=0.5;entryY=0;entryDx=0;entryDy=0;startSize=3;endArrow=block;endSize=3;strokeWidth=1;fillColor=none;width=3;" parent="1" source="MjUJNUJYvw90bvCCFvBL-5" target="MjUJNUJYvw90bvCCFvBL-10" edge="1">
          <mxGeometry relative="1" as="geometry" />
        </mxCell>
        <mxCell id="MjUJNUJYvw90bvCCFvBL-15" value="&lt;b&gt;&lt;font style=&quot;font-size: 14px&quot;&gt;(0, *)&lt;/font&gt;&lt;/b&gt;" style="edgeStyle=orthogonalEdgeStyle;rounded=0;orthogonalLoop=1;jettySize=auto;html=1;exitX=0;exitY=0.5;exitDx=0;exitDy=0;entryX=1;entryY=0.5;entryDx=0;entryDy=0;" parent="1" source="MjUJNUJYvw90bvCCFvBL-14" target="fxaJQLIq1E5l9hxzxbRq-46" edge="1">
          <mxGeometry x="0.3333" y="20" relative="1" as="geometry">
            <mxPoint as="offset" />
          </mxGeometry>
        </mxCell>
        <mxCell id="MjUJNUJYvw90bvCCFvBL-16" value="&lt;b&gt;&lt;font style=&quot;font-size: 14px&quot;&gt;(1, 1)&lt;/font&gt;&lt;/b&gt;" style="edgeStyle=orthogonalEdgeStyle;rounded=0;orthogonalLoop=1;jettySize=auto;html=1;entryX=0;entryY=0.5;entryDx=0;entryDy=0;" parent="1" source="MjUJNUJYvw90bvCCFvBL-14" target="MjUJNUJYvw90bvCCFvBL-2" edge="1">
          <mxGeometry x="0.3333" y="20" relative="1" as="geometry">
            <mxPoint as="offset" />
          </mxGeometry>
        </mxCell>
        <mxCell id="MjUJNUJYvw90bvCCFvBL-14" value="&lt;font style=&quot;font-size: 14px&quot;&gt;potpisuje&lt;/font&gt;" style="rhombus;whiteSpace=wrap;html=1;" parent="1" vertex="1">
          <mxGeometry x="760" y="200" width="120" height="80" as="geometry" />
        </mxCell>
        <mxCell id="MjUJNUJYvw90bvCCFvBL-19" value="&lt;b&gt;&lt;font style=&quot;font-size: 14px&quot;&gt;(0, *)&lt;/font&gt;&lt;/b&gt;" style="edgeStyle=orthogonalEdgeStyle;rounded=0;orthogonalLoop=1;jettySize=auto;html=1;exitX=0.5;exitY=1;exitDx=0;exitDy=0;entryX=0.5;entryY=0;entryDx=0;entryDy=0;" parent="1" source="MjUJNUJYvw90bvCCFvBL-17" target="fxaJQLIq1E5l9hxzxbRq-12" edge="1">
          <mxGeometry x="0.25" y="30" relative="1" as="geometry">
            <mxPoint y="-1" as="offset" />
          </mxGeometry>
        </mxCell>
        <mxCell id="MjUJNUJYvw90bvCCFvBL-45" style="edgeStyle=orthogonalEdgeStyle;rounded=0;orthogonalLoop=1;jettySize=auto;html=1;entryX=1;entryY=0.5;entryDx=0;entryDy=0;fontSize=14;" parent="1" source="MjUJNUJYvw90bvCCFvBL-17" target="fxaJQLIq1E5l9hxzxbRq-43" edge="1">
          <mxGeometry relative="1" as="geometry" />
        </mxCell>
        <mxCell id="MjUJNUJYvw90bvCCFvBL-46" value="&lt;b&gt;(1, *)&lt;/b&gt;" style="edgeLabel;html=1;align=center;verticalAlign=middle;resizable=0;points=[];fontSize=14;" parent="MjUJNUJYvw90bvCCFvBL-45" vertex="1" connectable="0">
          <mxGeometry x="-0.2186" y="3" relative="1" as="geometry">
            <mxPoint x="-32.94" y="21" as="offset" />
          </mxGeometry>
        </mxCell>
        <mxCell id="MjUJNUJYvw90bvCCFvBL-17" value="&lt;font style=&quot;font-size: 14px&quot;&gt;pravi&lt;/font&gt;" style="rhombus;whiteSpace=wrap;html=1;" parent="1" vertex="1">
          <mxGeometry x="760" y="520" width="120" height="80" as="geometry" />
        </mxCell>
        <mxCell id="MjUJNUJYvw90bvCCFvBL-32" style="edgeStyle=orthogonalEdgeStyle;rounded=0;orthogonalLoop=1;jettySize=auto;html=1;entryX=1;entryY=0.5;entryDx=0;entryDy=0;exitX=0.5;exitY=1;exitDx=0;exitDy=0;" parent="1" source="MjUJNUJYvw90bvCCFvBL-31" target="MjUJNUJYvw90bvCCFvBL-10" edge="1">
          <mxGeometry relative="1" as="geometry">
            <mxPoint x="1520" y="810" as="sourcePoint" />
          </mxGeometry>
        </mxCell>
        <mxCell id="5BPOKTN1fQV8tB7aTTN8-29" value="&lt;b&gt;&lt;font style=&quot;font-size: 14px&quot;&gt;(1, *)&amp;nbsp;&lt;/font&gt;&lt;/b&gt;" style="edgeLabel;html=1;align=center;verticalAlign=middle;resizable=0;points=[];" parent="MjUJNUJYvw90bvCCFvBL-32" vertex="1" connectable="0">
          <mxGeometry x="0.7676" y="-1" relative="1" as="geometry">
            <mxPoint x="19" y="-36" as="offset" />
          </mxGeometry>
        </mxCell>
        <mxCell id="MjUJNUJYvw90bvCCFvBL-86" style="edgeStyle=orthogonalEdgeStyle;rounded=0;orthogonalLoop=1;jettySize=auto;html=1;entryX=1;entryY=0.5;entryDx=0;entryDy=0;fontSize=14;exitX=0;exitY=0.5;exitDx=0;exitDy=0;" parent="1" source="MjUJNUJYvw90bvCCFvBL-31" target="fxaJQLIq1E5l9hxzxbRq-1" edge="1">
          <mxGeometry relative="1" as="geometry">
            <mxPoint x="1560" y="950" as="sourcePoint" />
          </mxGeometry>
        </mxCell>
        <mxCell id="5BPOKTN1fQV8tB7aTTN8-26" value="&lt;b&gt;&lt;font style=&quot;font-size: 14px&quot;&gt;(0, *)&lt;/font&gt;&lt;/b&gt;" style="edgeLabel;html=1;align=center;verticalAlign=middle;resizable=0;points=[];" parent="MjUJNUJYvw90bvCCFvBL-86" vertex="1" connectable="0">
          <mxGeometry x="0.3333" y="1" relative="1" as="geometry">
            <mxPoint y="-21" as="offset" />
          </mxGeometry>
        </mxCell>
        <mxCell id="MjUJNUJYvw90bvCCFvBL-34" value="&lt;b&gt;&lt;font style=&quot;font-size: 14px&quot;&gt;(0, *)&lt;/font&gt;&lt;/b&gt;" style="edgeStyle=orthogonalEdgeStyle;rounded=0;orthogonalLoop=1;jettySize=auto;html=1;entryX=0.5;entryY=1;entryDx=0;entryDy=0;exitX=0.5;exitY=0;exitDx=0;exitDy=0;" parent="1" source="fxaJQLIq1E5l9hxzxbRq-4" target="fxaJQLIq1E5l9hxzxbRq-10" edge="1">
          <mxGeometry x="0.5" y="20" relative="1" as="geometry">
            <mxPoint as="offset" />
          </mxGeometry>
        </mxCell>
        <mxCell id="5BPOKTN1fQV8tB7aTTN8-8" style="edgeStyle=orthogonalEdgeStyle;rounded=0;orthogonalLoop=1;jettySize=auto;html=1;entryX=0;entryY=0.5;entryDx=0;entryDy=0;" parent="1" source="MjUJNUJYvw90bvCCFvBL-35" target="fxaJQLIq1E5l9hxzxbRq-2" edge="1">
          <mxGeometry relative="1" as="geometry" />
        </mxCell>
        <mxCell id="5BPOKTN1fQV8tB7aTTN8-30" value="&lt;b&gt;&lt;font style=&quot;font-size: 14px&quot;&gt;(0, *)&lt;/font&gt;&lt;/b&gt;" style="edgeLabel;html=1;align=center;verticalAlign=middle;resizable=0;points=[];" parent="5BPOKTN1fQV8tB7aTTN8-8" vertex="1" connectable="0">
          <mxGeometry x="-0.25" y="1" relative="1" as="geometry">
            <mxPoint x="19" y="105" as="offset" />
          </mxGeometry>
        </mxCell>
        <mxCell id="5BPOKTN1fQV8tB7aTTN8-9" value="&lt;b&gt;&lt;font style=&quot;font-size: 14px&quot;&gt;(1, 1)&lt;/font&gt;&lt;/b&gt;" style="edgeStyle=orthogonalEdgeStyle;rounded=0;orthogonalLoop=1;jettySize=auto;html=1;entryX=1;entryY=0.5;entryDx=0;entryDy=0;" parent="1" source="MjUJNUJYvw90bvCCFvBL-35" target="fxaJQLIq1E5l9hxzxbRq-3" edge="1">
          <mxGeometry x="0.3333" y="-20" relative="1" as="geometry">
            <mxPoint as="offset" />
          </mxGeometry>
        </mxCell>
        <mxCell id="MjUJNUJYvw90bvCCFvBL-35" value="&lt;font style=&quot;font-size: 14px&quot;&gt;dostava&lt;/font&gt;" style="rhombus;whiteSpace=wrap;html=1;" parent="1" vertex="1">
          <mxGeometry x="1000" y="840" width="120" height="80" as="geometry" />
        </mxCell>
        <mxCell id="MjUJNUJYvw90bvCCFvBL-55" style="edgeStyle=orthogonalEdgeStyle;curved=1;rounded=0;orthogonalLoop=1;jettySize=auto;html=1;exitX=0;exitY=0.5;exitDx=0;exitDy=0;entryX=1;entryY=0;entryDx=0;entryDy=0;fontSize=14;" parent="1" source="MjUJNUJYvw90bvCCFvBL-49" target="fxaJQLIq1E5l9hxzxbRq-37" edge="1">
          <mxGeometry relative="1" as="geometry" />
        </mxCell>
        <mxCell id="MjUJNUJYvw90bvCCFvBL-49" value="&lt;u&gt;idZap&lt;/u&gt;" style="ellipse;whiteSpace=wrap;html=1;fontSize=14;" parent="1" vertex="1">
          <mxGeometry x="920" y="320" width="80" height="40" as="geometry" />
        </mxCell>
        <mxCell id="MjUJNUJYvw90bvCCFvBL-57" style="edgeStyle=orthogonalEdgeStyle;curved=1;rounded=0;orthogonalLoop=1;jettySize=auto;html=1;exitX=0;exitY=0.5;exitDx=0;exitDy=0;entryX=1;entryY=1;entryDx=0;entryDy=0;fontSize=14;" parent="1" source="MjUJNUJYvw90bvCCFvBL-50" target="fxaJQLIq1E5l9hxzxbRq-37" edge="1">
          <mxGeometry relative="1" as="geometry" />
        </mxCell>
        <mxCell id="MjUJNUJYvw90bvCCFvBL-50" value="&lt;i&gt;tipZap&lt;/i&gt;" style="ellipse;whiteSpace=wrap;html=1;fontSize=14;" parent="1" vertex="1">
          <mxGeometry x="920" y="440" width="80" height="40" as="geometry" />
        </mxCell>
        <mxCell id="MjUJNUJYvw90bvCCFvBL-56" style="edgeStyle=orthogonalEdgeStyle;curved=1;rounded=0;orthogonalLoop=1;jettySize=auto;html=1;exitX=0;exitY=0.5;exitDx=0;exitDy=0;entryX=1;entryY=0.5;entryDx=0;entryDy=0;fontSize=14;" parent="1" source="MjUJNUJYvw90bvCCFvBL-51" target="fxaJQLIq1E5l9hxzxbRq-37" edge="1">
          <mxGeometry relative="1" as="geometry" />
        </mxCell>
        <mxCell id="MjUJNUJYvw90bvCCFvBL-51" value="&lt;i&gt;imeZap&lt;/i&gt;" style="ellipse;whiteSpace=wrap;html=1;fontSize=14;" parent="1" vertex="1">
          <mxGeometry x="920" y="380" width="80" height="40" as="geometry" />
        </mxCell>
        <mxCell id="MjUJNUJYvw90bvCCFvBL-61" style="edgeStyle=orthogonalEdgeStyle;curved=1;rounded=0;orthogonalLoop=1;jettySize=auto;html=1;exitX=0.5;exitY=0;exitDx=0;exitDy=0;entryX=1;entryY=0.75;entryDx=0;entryDy=0;fontSize=14;" parent="1" source="MjUJNUJYvw90bvCCFvBL-58" target="MjUJNUJYvw90bvCCFvBL-2" edge="1">
          <mxGeometry relative="1" as="geometry" />
        </mxCell>
        <mxCell id="MjUJNUJYvw90bvCCFvBL-58" value="&lt;u&gt;idUgo&lt;/u&gt;" style="ellipse;whiteSpace=wrap;html=1;fontSize=14;" parent="1" vertex="1">
          <mxGeometry x="1160" y="280" width="80" height="40" as="geometry" />
        </mxCell>
        <mxCell id="MjUJNUJYvw90bvCCFvBL-60" style="edgeStyle=orthogonalEdgeStyle;curved=1;rounded=0;orthogonalLoop=1;jettySize=auto;html=1;exitX=0.5;exitY=0;exitDx=0;exitDy=0;entryX=0.75;entryY=1;entryDx=0;entryDy=0;fontSize=14;" parent="1" source="MjUJNUJYvw90bvCCFvBL-59" target="MjUJNUJYvw90bvCCFvBL-2" edge="1">
          <mxGeometry relative="1" as="geometry" />
        </mxCell>
        <mxCell id="MjUJNUJYvw90bvCCFvBL-59" value="&lt;i&gt;tipUgo&lt;/i&gt;" style="ellipse;whiteSpace=wrap;html=1;fontSize=14;" parent="1" vertex="1">
          <mxGeometry x="1100" y="320" width="80" height="40" as="geometry" />
        </mxCell>
        <mxCell id="MjUJNUJYvw90bvCCFvBL-63" style="edgeStyle=orthogonalEdgeStyle;curved=1;rounded=0;orthogonalLoop=1;jettySize=auto;html=1;exitX=0.5;exitY=0;exitDx=0;exitDy=0;fontSize=14;entryX=0.25;entryY=1;entryDx=0;entryDy=0;" parent="1" source="MjUJNUJYvw90bvCCFvBL-62" target="fxaJQLIq1E5l9hxzxbRq-8" edge="1">
          <mxGeometry relative="1" as="geometry">
            <mxPoint x="320" y="623" as="targetPoint" />
          </mxGeometry>
        </mxCell>
        <mxCell id="MjUJNUJYvw90bvCCFvBL-62" value="&lt;u&gt;idSir&lt;/u&gt;" style="ellipse;whiteSpace=wrap;html=1;fontSize=14;" parent="1" vertex="1">
          <mxGeometry x="560" y="960" width="80" height="40" as="geometry" />
        </mxCell>
        <mxCell id="MjUJNUJYvw90bvCCFvBL-65" style="edgeStyle=orthogonalEdgeStyle;curved=1;rounded=0;orthogonalLoop=1;jettySize=auto;html=1;exitX=0.5;exitY=0;exitDx=0;exitDy=0;fontSize=14;entryX=1;entryY=0.75;entryDx=0;entryDy=0;" parent="1" source="MjUJNUJYvw90bvCCFvBL-64" target="fxaJQLIq1E5l9hxzxbRq-8" edge="1">
          <mxGeometry relative="1" as="geometry">
            <mxPoint x="775" y="955" as="targetPoint" />
          </mxGeometry>
        </mxCell>
        <mxCell id="MjUJNUJYvw90bvCCFvBL-64" value="&lt;i&gt;nazivSir&lt;/i&gt;" style="ellipse;whiteSpace=wrap;html=1;fontSize=14;" parent="1" vertex="1">
          <mxGeometry x="670" y="920" width="80" height="40" as="geometry" />
        </mxCell>
        <mxCell id="MjUJNUJYvw90bvCCFvBL-68" style="edgeStyle=orthogonalEdgeStyle;curved=1;rounded=0;orthogonalLoop=1;jettySize=auto;html=1;exitX=1;exitY=1;exitDx=0;exitDy=0;entryX=0;entryY=1;entryDx=0;entryDy=0;fontSize=14;" parent="1" source="MjUJNUJYvw90bvCCFvBL-66" target="fxaJQLIq1E5l9hxzxbRq-12" edge="1">
          <mxGeometry relative="1" as="geometry" />
        </mxCell>
        <mxCell id="MjUJNUJYvw90bvCCFvBL-66" value="&lt;u&gt;idProiz&lt;/u&gt;" style="ellipse;whiteSpace=wrap;html=1;fontSize=14;" parent="1" vertex="1">
          <mxGeometry x="650" y="750" width="80" height="40" as="geometry" />
        </mxCell>
        <mxCell id="MjUJNUJYvw90bvCCFvBL-69" style="edgeStyle=orthogonalEdgeStyle;curved=1;rounded=0;orthogonalLoop=1;jettySize=auto;html=1;exitX=0.5;exitY=0;exitDx=0;exitDy=0;entryX=0.5;entryY=1;entryDx=0;entryDy=0;fontSize=14;" parent="1" source="MjUJNUJYvw90bvCCFvBL-67" target="fxaJQLIq1E5l9hxzxbRq-12" edge="1">
          <mxGeometry relative="1" as="geometry" />
        </mxCell>
        <mxCell id="MjUJNUJYvw90bvCCFvBL-67" value="&lt;i&gt;nazivProiz&lt;/i&gt;" style="ellipse;whiteSpace=wrap;html=1;fontSize=14;" parent="1" vertex="1">
          <mxGeometry x="720" y="790" width="80" height="40" as="geometry" />
        </mxCell>
        <mxCell id="MjUJNUJYvw90bvCCFvBL-74" value="&lt;b&gt;(1, *)&lt;/b&gt;" style="edgeStyle=orthogonalEdgeStyle;rounded=0;orthogonalLoop=1;jettySize=auto;html=1;fontSize=14;entryX=0.5;entryY=1;entryDx=0;entryDy=0;exitX=0.5;exitY=0;exitDx=0;exitDy=0;" parent="1" source="5BPOKTN1fQV8tB7aTTN8-39" target="MjUJNUJYvw90bvCCFvBL-7" edge="1">
          <mxGeometry x="0.25" y="20" relative="1" as="geometry">
            <mxPoint x="340" y="780" as="targetPoint" />
            <mxPoint x="320.0588235294117" y="890.0392156862745" as="sourcePoint" />
            <mxPoint as="offset" />
          </mxGeometry>
        </mxCell>
        <mxCell id="MjUJNUJYvw90bvCCFvBL-75" value="&lt;b&gt;(0, *)&lt;/b&gt;" style="edgeStyle=orthogonalEdgeStyle;rounded=0;orthogonalLoop=1;jettySize=auto;html=1;fontSize=14;entryX=0;entryY=0.5;entryDx=0;entryDy=0;exitX=1;exitY=0.5;exitDx=0;exitDy=0;" parent="1" source="5BPOKTN1fQV8tB7aTTN8-39" target="fxaJQLIq1E5l9hxzxbRq-8" edge="1">
          <mxGeometry x="0.3333" y="-20" relative="1" as="geometry">
            <mxPoint x="510" y="880" as="targetPoint" />
            <mxPoint x="380" y="930" as="sourcePoint" />
            <mxPoint as="offset" />
          </mxGeometry>
        </mxCell>
        <mxCell id="MjUJNUJYvw90bvCCFvBL-89" style="edgeStyle=orthogonalEdgeStyle;rounded=0;orthogonalLoop=1;jettySize=auto;html=1;entryX=0;entryY=0.5;entryDx=0;entryDy=0;fontSize=14;exitX=0.5;exitY=0;exitDx=0;exitDy=0;" parent="1" source="MjUJNUJYvw90bvCCFvBL-88" target="MjUJNUJYvw90bvCCFvBL-7" edge="1">
          <mxGeometry relative="1" as="geometry">
            <mxPoint x="140" y="820" as="sourcePoint" />
          </mxGeometry>
        </mxCell>
        <mxCell id="MjUJNUJYvw90bvCCFvBL-91" value="&lt;b&gt;(1, 1)&lt;/b&gt;" style="edgeLabel;html=1;align=center;verticalAlign=middle;resizable=0;points=[];fontSize=14;" parent="MjUJNUJYvw90bvCCFvBL-89" vertex="1" connectable="0">
          <mxGeometry x="0.4886" relative="1" as="geometry">
            <mxPoint x="37.14" y="-20" as="offset" />
          </mxGeometry>
        </mxCell>
        <mxCell id="MjUJNUJYvw90bvCCFvBL-90" style="edgeStyle=orthogonalEdgeStyle;rounded=0;orthogonalLoop=1;jettySize=auto;html=1;entryX=0;entryY=0.5;entryDx=0;entryDy=0;fontSize=14;exitX=1;exitY=0.5;exitDx=0;exitDy=0;" parent="1" source="MjUJNUJYvw90bvCCFvBL-88" target="fxaJQLIq1E5l9hxzxbRq-1" edge="1">
          <mxGeometry relative="1" as="geometry">
            <mxPoint x="159.9999999999999" y="1040" as="sourcePoint" />
          </mxGeometry>
        </mxCell>
        <mxCell id="MjUJNUJYvw90bvCCFvBL-92" value="&lt;span&gt;(0, *)&lt;/span&gt;" style="edgeLabel;html=1;align=center;verticalAlign=middle;resizable=0;points=[];fontSize=14;fontStyle=1" parent="MjUJNUJYvw90bvCCFvBL-90" vertex="1" connectable="0">
          <mxGeometry x="0.7313" y="-4" relative="1" as="geometry">
            <mxPoint x="30" y="-24" as="offset" />
          </mxGeometry>
        </mxCell>
        <mxCell id="5BPOKTN1fQV8tB7aTTN8-6" value="" style="group" parent="1" vertex="1" connectable="0">
          <mxGeometry x="1000" y="1000" width="120" height="80" as="geometry" />
        </mxCell>
        <mxCell id="5BPOKTN1fQV8tB7aTTN8-5" value="" style="rounded=0;whiteSpace=wrap;html=1;" parent="5BPOKTN1fQV8tB7aTTN8-6" vertex="1">
          <mxGeometry width="120" height="80" as="geometry" />
        </mxCell>
        <mxCell id="MjUJNUJYvw90bvCCFvBL-31" value="&lt;font style=&quot;font-size: 14px&quot;&gt;&lt;b&gt;potpisanPDist&lt;/b&gt;&lt;/font&gt;" style="rhombus;whiteSpace=wrap;html=1;" parent="5BPOKTN1fQV8tB7aTTN8-6" vertex="1">
          <mxGeometry width="120" height="80" as="geometry" />
        </mxCell>
        <mxCell id="5BPOKTN1fQV8tB7aTTN8-7" value="&lt;b&gt;&lt;font style=&quot;font-size: 14px&quot;&gt;(1, *)&lt;/font&gt;&lt;/b&gt;" style="edgeStyle=orthogonalEdgeStyle;rounded=0;orthogonalLoop=1;jettySize=auto;html=1;exitX=0.5;exitY=1;exitDx=0;exitDy=0;entryX=0.5;entryY=0;entryDx=0;entryDy=0;" parent="1" source="fxaJQLIq1E5l9hxzxbRq-4" target="MjUJNUJYvw90bvCCFvBL-31" edge="1">
          <mxGeometry x="0.8125" y="20" relative="1" as="geometry">
            <mxPoint as="offset" />
          </mxGeometry>
        </mxCell>
        <mxCell id="5BPOKTN1fQV8tB7aTTN8-15" style="edgeStyle=orthogonalEdgeStyle;curved=1;rounded=0;orthogonalLoop=1;jettySize=auto;html=1;entryX=0;entryY=0.75;entryDx=0;entryDy=0;" parent="1" source="5BPOKTN1fQV8tB7aTTN8-10" target="fxaJQLIq1E5l9hxzxbRq-2" edge="1">
          <mxGeometry relative="1" as="geometry" />
        </mxCell>
        <mxCell id="5BPOKTN1fQV8tB7aTTN8-10" value="&lt;u&gt;idProd&lt;/u&gt;" style="ellipse;whiteSpace=wrap;html=1;fontSize=14;" parent="1" vertex="1">
          <mxGeometry x="1130" y="1050" width="80" height="40" as="geometry" />
        </mxCell>
        <mxCell id="5BPOKTN1fQV8tB7aTTN8-19" style="edgeStyle=orthogonalEdgeStyle;curved=1;rounded=0;orthogonalLoop=1;jettySize=auto;html=1;exitX=1;exitY=1;exitDx=0;exitDy=0;entryX=0.25;entryY=0;entryDx=0;entryDy=0;" parent="1" source="5BPOKTN1fQV8tB7aTTN8-16" target="fxaJQLIq1E5l9hxzxbRq-2" edge="1">
          <mxGeometry relative="1" as="geometry" />
        </mxCell>
        <mxCell id="5BPOKTN1fQV8tB7aTTN8-16" value="&lt;i&gt;adresaProd&lt;/i&gt;" style="ellipse;whiteSpace=wrap;html=1;fontSize=14;" parent="1" vertex="1">
          <mxGeometry x="1220" y="920" width="80" height="40" as="geometry" />
        </mxCell>
        <mxCell id="5BPOKTN1fQV8tB7aTTN8-21" style="edgeStyle=orthogonalEdgeStyle;curved=1;rounded=0;orthogonalLoop=1;jettySize=auto;html=1;exitX=0;exitY=1;exitDx=0;exitDy=0;entryX=0;entryY=0.25;entryDx=0;entryDy=0;" parent="1" source="5BPOKTN1fQV8tB7aTTN8-17" target="fxaJQLIq1E5l9hxzxbRq-2" edge="1">
          <mxGeometry relative="1" as="geometry" />
        </mxCell>
        <mxCell id="5BPOKTN1fQV8tB7aTTN8-17" value="&lt;i&gt;nazivProd&lt;/i&gt;" style="ellipse;whiteSpace=wrap;html=1;fontSize=14;" parent="1" vertex="1">
          <mxGeometry x="1180" y="960" width="80" height="40" as="geometry" />
        </mxCell>
        <mxCell id="5BPOKTN1fQV8tB7aTTN8-23" style="edgeStyle=orthogonalEdgeStyle;curved=1;rounded=0;orthogonalLoop=1;jettySize=auto;html=1;entryX=0.75;entryY=1;entryDx=0;entryDy=0;" parent="1" source="5BPOKTN1fQV8tB7aTTN8-22" target="fxaJQLIq1E5l9hxzxbRq-1" edge="1">
          <mxGeometry relative="1" as="geometry" />
        </mxCell>
        <mxCell id="5BPOKTN1fQV8tB7aTTN8-22" value="&lt;u&gt;idDistr&lt;/u&gt;" style="ellipse;whiteSpace=wrap;html=1;fontSize=14;" parent="1" vertex="1">
          <mxGeometry x="900" y="1080" width="80" height="40" as="geometry" />
        </mxCell>
        <mxCell id="5BPOKTN1fQV8tB7aTTN8-25" style="edgeStyle=orthogonalEdgeStyle;curved=1;rounded=0;orthogonalLoop=1;jettySize=auto;html=1;entryX=-0.033;entryY=0.663;entryDx=0;entryDy=0;entryPerimeter=0;" parent="1" source="5BPOKTN1fQV8tB7aTTN8-24" target="fxaJQLIq1E5l9hxzxbRq-1" edge="1">
          <mxGeometry relative="1" as="geometry" />
        </mxCell>
        <mxCell id="5BPOKTN1fQV8tB7aTTN8-24" value="&lt;i&gt;nazivDistr&lt;/i&gt;" style="ellipse;whiteSpace=wrap;html=1;fontSize=14;" parent="1" vertex="1">
          <mxGeometry x="640" y="1080" width="80" height="40" as="geometry" />
        </mxCell>
        <mxCell id="5BPOKTN1fQV8tB7aTTN8-32" style="edgeStyle=orthogonalEdgeStyle;curved=1;rounded=0;orthogonalLoop=1;jettySize=auto;html=1;entryX=0.25;entryY=0;entryDx=0;entryDy=0;" parent="1" source="5BPOKTN1fQV8tB7aTTN8-31" target="fxaJQLIq1E5l9hxzxbRq-12" edge="1">
          <mxGeometry relative="1" as="geometry" />
        </mxCell>
        <mxCell id="5BPOKTN1fQV8tB7aTTN8-31" value="&lt;i&gt;masaProiz&lt;/i&gt;" style="ellipse;whiteSpace=wrap;html=1;fontSize=14;" parent="1" vertex="1">
          <mxGeometry x="670" y="620" width="80" height="40" as="geometry" />
        </mxCell>
        <mxCell id="5BPOKTN1fQV8tB7aTTN8-34" style="edgeStyle=orthogonalEdgeStyle;curved=1;rounded=0;orthogonalLoop=1;jettySize=auto;html=1;entryX=0.25;entryY=0;entryDx=0;entryDy=0;" parent="1" source="5BPOKTN1fQV8tB7aTTN8-33" target="fxaJQLIq1E5l9hxzxbRq-9" edge="1">
          <mxGeometry relative="1" as="geometry" />
        </mxCell>
        <mxCell id="5BPOKTN1fQV8tB7aTTN8-33" value="&lt;i&gt;kolicina&lt;/i&gt;" style="ellipse;whiteSpace=wrap;html=1;fontSize=14;" parent="1" vertex="1">
          <mxGeometry x="1080" y="600" width="80" height="40" as="geometry" />
        </mxCell>
        <mxCell id="5BPOKTN1fQV8tB7aTTN8-37" style="edgeStyle=orthogonalEdgeStyle;curved=1;rounded=0;orthogonalLoop=1;jettySize=auto;html=1;entryX=0.5;entryY=1;entryDx=0;entryDy=0;" parent="1" source="5BPOKTN1fQV8tB7aTTN8-35" target="5BPOKTN1fQV8tB7aTTN8-39" edge="1">
          <mxGeometry relative="1" as="geometry">
            <mxPoint x="380" y="910" as="targetPoint" />
          </mxGeometry>
        </mxCell>
        <mxCell id="5BPOKTN1fQV8tB7aTTN8-35" value="&lt;i&gt;jedinica&lt;/i&gt;" style="ellipse;whiteSpace=wrap;html=1;fontSize=14;" parent="1" vertex="1">
          <mxGeometry x="380" y="960" width="80" height="40" as="geometry" />
        </mxCell>
        <mxCell id="5BPOKTN1fQV8tB7aTTN8-38" style="edgeStyle=orthogonalEdgeStyle;curved=1;rounded=0;orthogonalLoop=1;jettySize=auto;html=1;exitX=1;exitY=0.5;exitDx=0;exitDy=0;entryX=0;entryY=0.5;entryDx=0;entryDy=0;" parent="1" source="5BPOKTN1fQV8tB7aTTN8-36" target="5BPOKTN1fQV8tB7aTTN8-39" edge="1">
          <mxGeometry relative="1" as="geometry">
            <mxPoint x="260" y="910" as="targetPoint" />
          </mxGeometry>
        </mxCell>
        <mxCell id="5BPOKTN1fQV8tB7aTTN8-36" value="&lt;i&gt;kolicina&lt;/i&gt;" style="ellipse;whiteSpace=wrap;html=1;fontSize=14;" parent="1" vertex="1">
          <mxGeometry x="160" y="920" width="80" height="40" as="geometry" />
        </mxCell>
        <mxCell id="MjUJNUJYvw90bvCCFvBL-88" value="&lt;b&gt;potpisanNDist&lt;/b&gt;" style="rhombus;whiteSpace=wrap;html=1;fontSize=14;" parent="1" vertex="1">
          <mxGeometry x="40" y="1000" width="120" height="80" as="geometry" />
        </mxCell>
        <mxCell id="5BPOKTN1fQV8tB7aTTN8-39" value="&lt;b style=&quot;font-size: 14px&quot;&gt;obuhvataSir&lt;/b&gt;" style="rhombus;whiteSpace=wrap;html=1;" parent="1" vertex="1">
          <mxGeometry x="280" y="840" width="120" height="80" as="geometry" />
        </mxCell>
      </root>
    </mxGraphModel>
  </diagram>
</mxfile>
